<svg xmlns="http://www.w3.org/2000/svg" viewBox="0 0 64 64"><defs><style>.cls-1{fill:#8bc4ff;}.cls-2{fill:#d1e7ff;}.cls-3{fill:#2e58ff;}</style></defs><title>Setting Gear</title><g id="Setting_Gear" data-name="Setting Gear"><path class="cls-1" d="M64,28v8a4,4,0,0,1-4.26,4H58.15a2,2,0,0,0-1.85,1.27c-.18.45-.36.9-.56,1.35a2,2,0,0,0,.41,2.21l1.31,1.31a4,4,0,0,1,0,5.66L51.8,57.46a4,4,0,0,1-5.66,0l-2.31-2.31a24.79,24.79,0,0,1-2.57,1.15A2,2,0,0,0,40,58.15V60a4,4,0,0,1-4,4H28a4,4,0,0,1-4-4.26V58.15a2,2,0,0,0-1.27-1.85c-.45-.18-.9-.36-1.35-.56a2,2,0,0,0-2.21.41l-1.31,1.31a4,4,0,0,1-5.66,0L6.54,51.8a4,4,0,0,1,0-5.66l1.31-1.31a2,2,0,0,0,.41-2.21c-.2-.45-.38-.9-.56-1.35A2,2,0,0,0,5.85,40H4a4,4,0,0,1-4-4V28a4,4,0,0,1,4.26-4H5.85A2,2,0,0,0,7.7,22.73c.18-.45.36-.9.56-1.35a2,2,0,0,0-.41-2.21L6.54,17.86a4,4,0,0,1,0-5.66L12.2,6.54a4,4,0,0,1,5.66,0l1.31,1.31a2,2,0,0,0,2.21.41c.45-.2.9-.38,1.35-.56A2,2,0,0,0,24,5.85V4a4,4,0,0,1,4-4h8a4,4,0,0,1,4,4.26V5.85A2,2,0,0,0,41.27,7.7c.45.18.9.36,1.35.56a2,2,0,0,0,2.21-.41l1.31-1.31a4,4,0,0,1,5.66,0l5.66,5.66a4,4,0,0,1,0,5.66l-1.31,1.31a2,2,0,0,0-.41,2.21c.2.45.38.9.56,1.35A2,2,0,0,0,58.15,24H60A4,4,0,0,1,64,28Z"/><path class="cls-2" d="M62,57a5,5,0,0,1-8.45,3.62L32.71,39.78l7.07-7.07L60.45,53.38A5,5,0,0,1,62,57Z"/><path class="cls-2" d="M36.18,43.25a12,12,0,0,1-15-16.43l8,8,4.24-1.42,1.42-4.24-8-8a12,12,0,0,1,16.43,15"/><path class="cls-3" d="M60,24c-1.64,0-3.12.27-3.7-1.26-.18-.46-.37-.93-.57-1.36a2,2,0,0,1,.41-2.22l1.31-1.31a4,4,0,0,0,0-5.64L51.79,6.55a4,4,0,0,0-5.64,0L44.83,7.86a2,2,0,0,1-2.19.41C40.33,7.21,40,7.74,40,4.27A4.05,4.05,0,0,0,36,0H28a4,4,0,0,0-4,4c0,1.64.27,3.12-1.26,3.7-.46.18-.93.37-1.36.57a2,2,0,0,1-2.22-.41L17.85,6.55a4,4,0,0,0-5.64,0L6.55,12.21a4,4,0,0,0,0,5.64l1.31,1.32a2,2,0,0,1,.41,2.19C7.21,23.67,7.74,24,4.27,24A4.05,4.05,0,0,0,0,28v8a4,4,0,0,0,4,4c1.64,0,3.12-.27,3.7,1.26.18.46.37.93.57,1.36a2,2,0,0,1-.41,2.22L6.55,46.15a4,4,0,0,0,0,5.64l5.66,5.66a4,4,0,0,0,5.64,0l1.32-1.31a2,2,0,0,1,2.19-.41c2.31,1.06,2.64.53,2.64,4A4.05,4.05,0,0,0,28,64h8a4,4,0,0,0,4-4,8.06,8.06,0,0,1,.14-2.6,2,2,0,1,0-3.72-1.46A9.81,9.81,0,0,0,36,60l-7.94,0A6.82,6.82,0,0,1,28,58.15a6,6,0,0,0-3.84-5.59c-.37-.14-.75-.3-1.14-.47a6,6,0,0,0-6.68,1.23L15,54.63,9.37,49l1.31-1.3A6,6,0,0,0,11.91,41c-.17-.37-.33-.75-.47-1.13A6,6,0,0,0,5.85,36H4l0-7.94A6.82,6.82,0,0,1,5.85,28a6,6,0,0,0,5.59-3.84c.14-.37.3-.75.47-1.14a6,6,0,0,0-1.23-6.68L9.37,15,15,9.37l1.3,1.31A6,6,0,0,0,23,11.91c.37-.17.75-.33,1.13-.47A6,6,0,0,0,28,5.85V4l7.94,0A6.82,6.82,0,0,1,36,5.85a6,6,0,0,0,3.84,5.59c.37.14.75.3,1.14.47a6,6,0,0,0,6.68-1.23L49,9.37,54.63,15l-1.31,1.3A6,6,0,0,0,52.09,23c.17.37.33.75.47,1.13A6,6,0,0,0,58.15,28H60l0,7.94c-.24.21-2.28-.24-4.1.48a2,2,0,1,0,1.46,3.72A6.4,6.4,0,0,1,59.73,40,4.05,4.05,0,0,0,64,36V28A4,4,0,0,0,60,24Z"/><path class="cls-3" d="M45.52,35.63A14,14,0,0,0,26,19.37a2,2,0,0,0-.55,3.21l7.13,7.13-.71,2.12-2.12.71-7.13-7.13a2,2,0,0,0-3.21.55c-5.28,11,5.1,22.71,16.26,19.56L52.18,62.07A6.89,6.89,0,0,0,57,64a7,7,0,0,0,4.9-12C48,38.12,45.42,35.63,45.52,35.63ZM55,59.21,37.54,41.79c-1.39-1.31-2.29.18-5.4.24A10.12,10.12,0,0,1,22.07,30.56l5.68,5.68a2,2,0,0,0,2.05.49C34,35.34,34.89,35.31,35.31,34l1.42-4.24a2,2,0,0,0-.49-2.05l-5.68-5.68A10,10,0,0,1,41.38,35.48a2,2,0,0,0,.41,2.06L59,54.79A3,3,0,0,1,55,59.21Z"/></g></svg>